IKResults
version=1
nRows=24
nColumns=24
inDegrees=yes

Units are S.I. units (second, meters, Newtons, ...)
If the header above contains a line with 'inDegrees', this indicates whether rotational values are in degrees (yes) or radians (no).

endheader
time	pelvis_tilt	pelvis_list	pelvis_rotation	pelvis_tx	pelvis_ty	pelvis_tz	hip_flexion_r	hip_adduction_r	hip_rotation_r	knee_angle_r	ankle_angle_r	subtalar_angle_r	mtp_angle_r	hip_flexion_l	hip_adduction_l	hip_rotation_l	knee_angle_l	ankle_angle_l	subtalar_angle_l	mtp_angle_l	lumbar_extension	lumbar_bending	lumbar_rotation
3.475000	10.660365	2.095420	-179.756078	0.291358	0.623166	-1.214946	62.725201	-26.833246	-15.987858	-91.346279	33.609392	6.206775	0.000000	65.793353	-31.998910	-10.891264	-90.790536	33.213140	15.972919	0.000000	-11.469350	1.584568	2.645360
3.480000	10.651330	2.086469	-179.779992	0.292030	0.618409	-1.214920	63.391510	-27.031099	-15.715101	-92.313661	33.945421	6.301639	0.000000	66.495610	-32.165565	-10.545929	-91.807475	33.542655	16.074388	0.000000	-11.598826	1.587778	2.661152
3.485000	10.634479	2.092082	-179.830745	0.292554	0.613721	-1.214868	64.075883	-27.248218	-15.654245	-93.355289	33.938908	5.672388	0.000000	67.159939	-32.378387	-10.241876	-92.712571	33.971743	16.175976	0.000000	-11.721682	1.610886	2.705753
3.490000	10.619357	2.090558	-179.882839	0.293090	0.609043	-1.214732	64.735817	-27.427657	-15.382560	-94.303159	34.252066	5.672794	0.000000	67.833027	-32.565225	-9.921817	-93.681805	34.360691	16.221302	0.000000	-11.844000	1.627799	2.800132
3.495000	10.611795	2.118562	-179.928249	0.293595	0.604389	-1.214609	65.372740	-27.613775	-15.163424	-95.241269	34.596489	5.774412	0.000000	68.544086	-32.759147	-9.552258	-94.720259	34.707173	16.294736	0.000000	-11.953358	1.681551	2.852287
3.500000	10.566895	2.139750	-179.986792	0.294017	0.599758	-1.214504	65.963259	-27.772977	-14.907197	-96.164934	34.939178	5.895477	0.000000	69.151785	-32.996487	-9.299887	-95.793915	35.353095	16.394832	0.000000	-12.096092	1.718784	2.956208
3.505000	10.563316	2.103856	-179.988113	0.294537	0.595110	-1.214309	66.615120	-28.021323	-14.614296	-97.070220	35.251823	6.053892	0.000000	69.847843	-33.078684	-8.921178	-96.555053	35.496808	16.422527	0.000000	-12.194022	1.713700	2.958983
3.510000	10.551427	2.114112	-180.007680	0.295042	0.590492	-1.214283	67.231140	-28.192192	-14.355201	-97.958708	35.566375	6.179536	0.000000	70.494441	-33.258061	-8.629392	-97.581285	36.013244	16.543589	0.000000	-12.309209	1.739336	2.990329
3.515000	10.543641	2.103964	-180.006982	0.295469	0.585858	-1.214096	67.862053	-28.409496	-14.076781	-98.850935	35.888685	6.309319	0.000000	71.170939	-33.374319	-8.285216	-98.476844	36.333266	16.611789	0.000000	-12.403459	1.754946	3.030206
3.520000	10.501039	2.106364	-180.022765	0.295847	0.581305	-1.213877	68.457000	-28.610832	-13.799271	-99.743009	36.203443	6.431449	0.000000	71.803166	-33.519298	-7.946423	-99.369514	36.664438	16.678684	0.000000	-12.536461	1.786699	3.103675
3.525000	10.485509	2.110956	-180.051368	0.296242	0.576735	-1.213699	69.083580	-28.780559	-13.519363	-100.621079	36.510732	6.484991	0.000000	72.468121	-33.661135	-7.591702	-100.255488	36.990761	16.734892	0.000000	-12.632840	1.822570	3.147264
3.530000	10.472535	2.086603	-180.038403	0.296661	0.572180	-1.213521	69.718667	-29.013126	-13.228353	-101.499816	36.796849	6.583527	0.000000	73.131313	-33.748667	-7.240797	-101.177392	37.234017	16.819974	0.000000	-12.736935	1.839632	3.137313
3.535000	10.453071	2.083227	-180.041523	0.297025	0.567619	-1.213337	70.322318	-29.212585	-12.948900	-102.355176	37.090998	6.690237	0.000000	73.786638	-33.865120	-6.892324	-102.042072	37.537484	16.908796	0.000000	-12.841748	1.877068	3.142093
3.540000	10.426630	2.093480	-180.026161	0.297408	0.563172	-1.213160	70.903184	-29.403322	-12.684082	-103.188996	37.371195	6.782553	0.000000	74.436947	-33.955370	-6.518975	-102.876895	37.827812	16.979567	0.000000	-12.957789	1.921853	3.149189
3.545000	10.314977	2.036886	-179.955563	0.297524	0.558861	-1.212487	71.404591	-29.757106	-12.358067	-104.025701	37.662127	6.974717	0.000000	74.920551	-33.944633	-6.255584	-103.728760	38.160696	16.997086	0.000000	-13.140250	1.949522	3.105970
3.550000	10.347339	2.118067	-180.044708	0.298027	0.554326	-1.212710	72.056846	-29.780677	-12.148412	-104.862382	37.916963	7.083096	0.000000	75.703548	-34.188492	-5.792949	-104.558044	38.402662	17.080096	0.000000	-13.194775	1.989388	3.257184
3.555000	10.309040	2.151246	-180.058561	0.298329	0.549969	-1.212554	72.611118	-29.953859	-11.911509	-105.673223	38.221830	7.179908	0.000000	76.345612	-34.316301	-5.404066	-105.376219	38.684962	17.155577	0.000000	-13.316755	2.037041	3.334200
3.560000	10.269217	2.177467	-180.054052	0.298650	0.545631	-1.212438	73.156955	-30.127196	-11.661369	-106.470409	38.475314	7.320760	0.000000	76.986933	-34.423912	-5.012797	-106.182660	38.931970	17.229360	0.000000	-13.438539	2.080987	3.369123
3.565000	10.231111	2.177335	-180.050916	0.299005	0.541311	-1.212352	73.719045	-30.302561	-11.378003	-107.258441	38.721796	7.453540	0.000000	77.605355	-34.517793	-4.658252	-106.976710	39.198453	17.300476	0.000000	-13.570638	2.088268	3.373497
3.570000	10.193693	2.189352	-180.070524	0.299268	0.537021	-1.212218	74.288431	-30.464658	-11.103510	-108.050756	38.938795	7.568424	0.000000	78.223184	-34.636448	-4.293833	-107.777910	39.457000	17.391668	0.000000	-13.687396	2.118894	3.404333
3.575000	10.122425	2.201290	-180.087300	0.299473	0.532840	-1.212062	74.805791	-30.623503	-10.828486	-108.834259	39.203478	7.533097	0.000000	78.793980	-34.754539	-3.938066	-108.559879	39.736870	17.441602	0.000000	-13.839224	2.140943	3.423610
3.580000	10.118756	2.246236	-180.103111	0.299742	0.528587	-1.211937	75.389507	-30.756072	-10.588531	-109.600489	39.370985	7.769452	0.000000	79.490697	-34.870571	-3.535431	-109.306456	39.954699	17.487148	0.000000	-13.910730	2.199102	3.518965
3.585000	10.046577	2.249871	-180.125408	0.299943	0.524415	-1.211842	75.909333	-30.894653	-10.289675	-110.365807	39.636876	7.733499	0.000000	80.052589	-34.975556	-3.174891	-110.074589	40.205081	17.544970	0.000000	-14.057187	2.196391	3.591297
3.590000	10.021617	2.249240	-180.115052	0.300211	0.520284	-1.211764	76.464546	-31.041657	-9.994948	-111.097296	39.847272	7.825106	0.000000	80.662887	-35.045612	-2.818456	-110.801475	40.431511	17.649707	0.000000	-14.162476	2.204180	3.572865
